<svg width="128" height="128" viewBox="0 0 128 128" fill="none" xmlns="http://www.w3.org/2000/svg">
<rect width="128" height="128" fill="#F5F5F5"/>
<g clip-path="url(#clip0)">
<path d="M86.1709 53.2779L66.913 42.1692L48.5605 52.9135C45.8219 54.5367 44.9275 58.0703 46.5507 60.8088C48.1519 63.5031 51.5971 64.4197 54.3246 62.8958L61.1267 58.8985C63.8763 57.3083 67.4099 58.2469 68.9889 61.0076C70.579 63.7682 69.6404 67.2907 66.8798 68.8808L36.5132 86.4162C38.7658 92.876 45.833 96.2881 52.2928 94.0244C53.0216 93.7704 53.7283 93.4502 54.4019 93.0637L86.1709 74.7222C92.0897 71.3101 94.1215 63.735 90.7094 57.8163C89.6162 55.928 88.0592 54.3711 86.1709 53.2779Z" fill="#293AD3"/>
<path d="M66.8911 68.8582C69.6517 67.2681 70.5903 63.7456 69.0002 60.985C67.4101 58.2354 63.8876 57.2858 61.127 58.8759L54.3248 62.8733C51.5974 64.4082 48.1411 63.4806 46.551 60.7862C44.9278 58.0477 45.8332 54.5141 48.5607 52.8909L66.9132 42.1466L54.4021 34.9359C48.4834 31.5238 40.9194 33.5446 37.4962 39.4633C36.414 41.3516 35.8398 43.4828 35.8398 45.6581V82.341C35.8398 83.7213 36.0607 85.0906 36.5134 86.4046V86.4157L66.8911 68.8582Z" fill="#F4A321"/>
</g>
<defs>
<clipPath id="clip0">
<rect x="35.8398" y="33.28" width="56.5151" height="61.44" fill="white"/>
</clipPath>
</defs>
</svg>
